<?xml version="1.0" standalone="no"?>
<!DOCTYPE svg PUBLIC "-//W3C//DTD SVG 20010904//EN"
 "http://www.w3.org/TR/2001/REC-SVG-20010904/DTD/svg10.dtd">
<svg version="1.0" xmlns="http://www.w3.org/2000/svg"
 width="500.000000pt" height="500.000000pt" viewBox="0 0 500.000000 500.000000"
 preserveAspectRatio="xMidYMid meet">
<metadata>
Created by potrace 1.14, written by Peter Selinger 2001-2017
</metadata>
<g transform="translate(0.000000,500.000000) scale(0.100000,-0.100000)"
fill="#000000" stroke="none">
<path d="M3283 4493 c-3 -10 -12 -33 -19 -51 -16 -40 -10 -58 24 -67 14 -3 39
-17 55 -31 16 -13 33 -24 39 -24 5 0 22 -8 36 -18 15 -10 54 -28 87 -41 33
-13 75 -32 93 -42 18 -11 39 -19 45 -19 7 0 23 -9 37 -20 14 -11 36 -20 49
-20 21 0 102 -53 153 -100 9 -8 39 -23 66 -33 31 -10 57 -27 68 -45 26 -39 45
-51 83 -52 l34 0 -27 -25 c-15 -14 -35 -25 -45 -25 -18 0 -111 -84 -111 -100
0 -5 -8 -11 -17 -14 -10 -3 -31 -26 -46 -51 -16 -25 -35 -48 -41 -53 -7 -4
-18 -17 -25 -29 -6 -12 -24 -30 -40 -39 -17 -10 -40 -37 -52 -61 -13 -24 -35
-51 -51 -61 -15 -9 -35 -31 -44 -50 -9 -18 -30 -40 -48 -49 -18 -8 -41 -29
-50 -45 -19 -31 -139 -162 -208 -225 -10 -9 -18 -25 -18 -35 0 -10 -22 -41
-50 -70 -27 -28 -52 -59 -55 -67 -3 -9 -20 -25 -39 -35 -18 -10 -40 -29 -47
-43 l-13 -25 -9 31 c-4 18 -3 39 2 50 6 11 10 148 11 345 0 264 -3 333 -14
361 -13 29 -13 40 -2 68 8 21 12 73 11 148 -1 128 -11 154 -65 188 l-29 17 19
31 c10 17 16 34 13 37 -3 3 6 10 21 16 28 10 37 28 53 97 8 32 7 47 -3 62 -17
24 -58 17 -77 -13 -10 -15 -24 -21 -52 -21 l-38 0 1 64 c0 49 -4 67 -19 82
-24 24 -34 24 -58 0 -17 -17 -20 -32 -18 -100 1 -45 -1 -81 -4 -81 -4 0 -12
14 -19 30 -16 40 -62 65 -90 50 -11 -6 -20 -14 -21 -18 0 -4 -2 -15 -4 -24 -2
-9 12 -45 30 -80 19 -35 42 -79 52 -98 9 -19 26 -45 36 -57 16 -18 18 -31 13
-75 -10 -80 -28 -298 -29 -343 -1 -22 6 -55 16 -74 25 -50 25 -310 0 -348 -16
-24 -18 -54 -18 -228 l0 -200 -53 53 c-30 29 -67 59 -83 67 -16 9 -29 19 -29
24 0 4 -12 14 -27 21 -16 8 -66 52 -113 100 -47 47 -104 98 -128 114 -24 16
-54 42 -67 58 -13 15 -26 28 -29 28 -31 0 -219 171 -245 222 -8 15 -27 33 -43
40 -15 7 -28 18 -28 24 0 23 -53 64 -82 64 -29 0 -98 55 -98 78 0 6 -14 25
-32 42 l-32 33 21 17 c15 11 18 21 12 27 -10 10 23 34 116 88 17 9 42 34 57
55 25 36 212 170 293 212 17 8 44 22 60 31 17 9 38 18 47 21 10 3 25 22 33 43
17 44 60 83 108 99 21 7 31 17 29 28 -2 9 2 16 9 16 6 0 8 7 5 16 -4 10 -2 13
6 8 8 -5 9 -2 5 9 -4 11 -1 17 8 17 9 0 12 6 9 15 -4 8 1 17 10 21 9 3 16 12
16 19 0 7 10 20 23 28 22 16 22 16 -10 16 -18 1 -33 -4 -33 -10 0 -18 -90 -90
-90 -72 0 4 -4 3 -8 -3 -14 -22 -67 -42 -98 -37 -32 5 -104 -21 -104 -38 0 -5
-5 -9 -11 -9 -6 0 -29 -13 -52 -29 -23 -15 -60 -37 -82 -47 -36 -17 -87 -51
-241 -162 -28 -20 -60 -51 -71 -67 -11 -17 -51 -49 -88 -70 -73 -43 -115 -80
-115 -101 0 -8 -6 -14 -13 -14 -7 0 -23 -9 -35 -20 -12 -11 -25 -20 -30 -20
-5 0 -30 -21 -56 -47 -43 -42 -47 -50 -44 -87 l3 -41 57 -7 c32 -4 68 -13 80
-19 13 -6 69 -58 126 -115 56 -57 108 -104 114 -104 11 0 52 -35 92 -79 43
-47 120 -121 127 -121 3 0 17 -16 30 -35 16 -23 36 -39 59 -45 34 -9 90 -52
90 -69 0 -4 19 -18 43 -30 55 -29 69 -41 86 -72 7 -15 24 -33 38 -40 13 -7 31
-25 40 -39 8 -15 46 -46 84 -70 38 -24 69 -46 69 -49 0 -4 15 -15 33 -26 38
-22 63 -46 103 -100 16 -21 37 -47 47 -57 9 -10 17 -22 17 -27 0 -16 -54 -66
-108 -100 -29 -18 -67 -48 -86 -67 -19 -19 -38 -34 -44 -34 -5 0 -20 -10 -33
-23 -13 -13 -42 -37 -64 -53 -21 -16 -47 -37 -57 -47 -10 -9 -25 -17 -33 -17
-34 0 -222 -166 -278 -245 -12 -16 -34 -43 -49 -59 -16 -16 -28 -32 -28 -36 0
-4 -15 -18 -33 -30 -18 -13 -39 -35 -45 -49 -7 -14 -29 -37 -49 -51 -21 -14
-40 -27 -43 -30 -3 -4 -23 -19 -44 -35 -22 -17 -56 -47 -76 -67 -20 -21 -42
-38 -48 -38 -6 0 -32 -20 -57 -45 -36 -37 -45 -52 -45 -80 0 -42 2 -51 13 -47
5 1 6 -1 3 -6 -5 -9 30 -51 62 -74 10 -7 31 -32 46 -55 15 -23 34 -44 42 -47
8 -3 14 -11 14 -19 0 -7 20 -34 44 -60 25 -25 53 -60 63 -77 9 -17 30 -36 45
-43 16 -6 28 -16 28 -22 0 -5 12 -23 26 -40 14 -16 33 -42 42 -57 9 -16 20
-28 24 -28 7 0 83 -75 153 -149 6 -6 26 -26 45 -45 19 -18 61 -61 93 -95 31
-33 61 -61 65 -61 5 0 14 -11 22 -24 7 -13 28 -32 46 -42 19 -10 34 -21 34
-25 0 -5 41 -45 193 -193 28 -26 80 -64 116 -83 36 -19 69 -39 72 -45 4 -6 26
-12 51 -15 38 -5 47 -2 68 22 14 15 36 37 48 49 90 81 362 361 362 372 0 8 4
14 8 14 4 0 16 15 27 32 27 47 106 124 194 188 4 3 18 21 31 40 37 53 51 66
100 91 25 13 51 29 58 36 7 7 17 13 21 13 10 0 81 69 81 79 0 12 97 119 154
170 14 13 26 31 26 41 0 17 52 70 69 70 4 0 15 15 26 32 10 18 41 55 67 82 27
27 54 61 61 75 9 19 23 27 51 32 56 9 86 47 86 107 -1 57 -12 74 -73 102 -26
12 -53 30 -60 39 -26 35 -90 73 -130 78 -23 3 -53 14 -67 23 -14 9 -42 25 -63
35 -21 10 -42 26 -47 36 -6 10 -27 21 -48 25 -22 4 -85 39 -155 85 -64 44
-119 79 -122 79 -3 0 -15 9 -27 20 -12 11 -29 20 -39 20 -9 0 -34 16 -55 35
-21 20 -50 39 -64 42 -13 3 -33 15 -44 25 -11 10 -26 18 -33 18 -7 0 -13 4
-13 8 0 5 -12 15 -27 23 -16 7 -43 29 -62 47 -19 19 -46 38 -61 44 -15 5 -33
20 -40 33 -7 14 -21 27 -32 31 -14 4 -18 15 -18 51 0 43 4 50 59 104 32 32 62
70 65 86 4 15 32 51 62 80 30 29 54 57 54 63 0 5 23 33 50 61 28 28 50 55 50
61 0 5 23 32 50 59 28 27 50 54 50 61 0 12 46 58 59 58 13 0 141 131 141 145
0 7 12 24 28 37 15 12 38 39 51 58 13 19 55 66 93 103 37 38 68 72 68 76 0 13
125 140 165 167 28 19 55 28 89 29 38 2 52 7 67 26 9 13 15 27 13 31 -3 4 9
14 26 23 16 8 30 21 31 28 0 6 2 31 5 54 4 38 1 46 -41 95 -91 104 -82 98
-146 98 -42 0 -61 4 -65 14 -3 8 -24 23 -47 34 -127 59 -154 74 -177 95 -50
45 -97 77 -116 77 -10 0 -37 9 -59 19 -83 41 -174 81 -182 81 -5 0 -36 16 -68
35 -51 31 -66 36 -114 33 -31 -1 -66 1 -79 6 -17 6 -24 3 -29 -11z m-722 -30
c-12 -20 -14 -14 -5 12 4 9 9 14 11 11 3 -2 0 -13 -6 -23z m-58 -78 c-3 -9 -8
-14 -10 -11 -3 3 -2 9 2 15 9 16 15 13 8 -4z m312 -2128 c-10 -23 -20 -60 -22
-82 -2 -22 -8 -53 -14 -69 -12 -38 -12 -248 1 -281 14 -37 15 -554 1 -568 -6
-6 -11 -40 -11 -77 0 -49 -5 -71 -20 -90 -18 -23 -20 -42 -20 -241 0 -134 4
-219 10 -225 7 -7 10 -60 8 -140 l-3 -129 -100 96 c-55 53 -125 118 -155 145
-89 80 -150 146 -167 181 -8 18 -19 33 -23 33 -11 0 -93 79 -106 101 -5 9 -28
28 -51 42 -23 15 -49 42 -59 62 -9 19 -20 35 -26 35 -5 0 -15 15 -23 33 -7 18
-28 48 -45 67 -18 19 -41 45 -52 58 -11 12 -26 22 -34 22 -8 0 -14 8 -14 19 0
21 -46 71 -66 71 -8 0 -14 5 -14 11 0 6 -9 24 -20 40 -16 22 -19 33 -11 48 12
21 81 79 156 130 51 35 105 86 105 100 0 4 10 13 23 20 13 7 32 27 42 44 10
17 65 78 122 136 56 58 103 109 103 112 0 10 78 59 93 59 7 0 29 15 48 34 20
18 50 41 67 52 18 10 32 22 32 26 0 4 12 14 28 22 15 8 48 34 74 58 26 25 60
51 75 58 16 8 39 23 53 33 32 24 37 9 15 -46z m300 -27 c3 -5 15 -10 25 -10
10 0 27 -13 36 -29 10 -16 29 -35 43 -43 14 -7 35 -21 45 -30 11 -10 26 -18
33 -18 7 0 13 -4 13 -9 0 -5 17 -17 38 -26 20 -10 66 -35 101 -57 34 -21 67
-38 72 -38 5 0 9 -4 9 -9 0 -5 17 -17 38 -26 20 -10 83 -49 140 -86 57 -38
110 -69 117 -69 8 0 16 -4 20 -9 3 -6 31 -22 63 -37 31 -15 71 -38 87 -50 17
-12 49 -27 73 -34 24 -6 46 -18 49 -26 7 -20 -71 -139 -132 -199 -28 -27 -61
-66 -74 -85 -13 -19 -40 -51 -61 -70 -20 -19 -51 -56 -69 -82 -17 -27 -35 -48
-40 -48 -4 0 -14 -11 -21 -25 -13 -24 -62 -61 -129 -98 -18 -10 -52 -39 -75
-64 -44 -49 -77 -82 -182 -185 -38 -36 -79 -77 -90 -90 -12 -13 -33 -34 -48
-47 -14 -13 -26 -31 -26 -41 0 -11 -13 -26 -29 -36 -15 -9 -36 -31 -46 -48
-10 -17 -34 -46 -52 -65 l-34 -34 5 149 c3 82 10 203 16 269 6 66 13 323 15
570 2 248 7 464 10 480 6 29 20 168 31 303 5 58 15 75 29 52z"/>
<path d="M1470 1421 c0 -5 8 -15 17 -22 14 -12 15 -12 9 0 -5 8 -3 17 5 22 10
6 8 9 -8 9 -13 0 -23 -4 -23 -9z"/>
</g>
</svg>
